# xmcd CD database file
#
# Track frame offsets:
#	150
#	28295
#	57088
#	87664
#	128514
#	158362
#	183525
#	209789
#	244020
#	275724
#	300964
#
# Disc length: 4476 seconds
#
# Revision: 2
# Processed by: cddbd v1.5.2PL0 Copyright (c) Steve Scherf et al.
# Submitted via: CDex 1.50
#
DISCID=96117a0b
DTITLE=Fierce Angel - Beach Angel III [CD3) [FIANCD12]
DYEAR=2008
DGENRE=House
TTITLE0=Clique Feat. Robina - New Moon (EK Mix)
TTITLE1=Furry Phreaks Feat. Terra Deva - All Over The World (Original Club Mix)
TTITLE2=Nick Holder Feat. Sacha - Time (Wahoo Vocal Mix)
TTITLE3=Eric Kupper Pres. Organika - Aurora (Main Mix)
TTITLE4=Bassmonkeys and Soulshaker Feat. Andrea Britton - Always Be Together (Original Mix)
TTITLE5=Bassmonkeys and Etherfox - Another Valentine (Original Mix)
TTITLE6=James Bright Feat. Rachel Lloyd - Magic In Your Eyes (Original Mix)
TTITLE7=Peyton - Here I Am (Eric Kupper Mix)
TTITLE8=Samantha James - Breathe You In (Eric Kupper Mix)
TTITLE9=Ian Pooley - Heaven (Tonka's High Pass Remix)
TTITLE10=Kaskade - Everything (Kaskade's Big Room Mix)
EXTD=YEAR: 2008
EXTT0=
EXTT1=
EXTT2=
EXTT3=
EXTT4=
EXTT5=
EXTT6=
EXTT7=
EXTT8=
EXTT9=
EXTT10=
PLAYORDER=
